<?xml version="1.0" encoding="UTF-8" standalone="no"?>
<svg
   xmlns:dc="http://purl.org/dc/elements/1.1/"
   xmlns:cc="http://creativecommons.org/ns#"
   xmlns:rdf="http://www.w3.org/1999/02/22-rdf-syntax-ns#"
   xmlns:svg="http://www.w3.org/2000/svg"
   xmlns="http://www.w3.org/2000/svg"
   xmlns:sodipodi="http://sodipodi.sourceforge.net/DTD/sodipodi-0.dtd"
   xmlns:inkscape="http://www.inkscape.org/namespaces/inkscape"
   height="16"
   viewBox="0 0 16 16"
   width="16"
   version="1.1"
   id="svg4"
   sodipodi:docname="BTransition.svg"
   inkscape:version="1.0.2-2 (e86c870879, 2021-01-15)">
  <metadata
     id="metadata10">
    <rdf:RDF>
      <cc:Work
         rdf:about="">
        <dc:format>image/svg+xml</dc:format>
        <dc:type
           rdf:resource="http://purl.org/dc/dcmitype/StillImage" />
      </cc:Work>
    </rdf:RDF>
  </metadata>
  <defs
     id="defs8" />
  <sodipodi:namedview
     pagecolor="#ffffff"
     bordercolor="#666666"
     borderopacity="1"
     objecttolerance="10"
     gridtolerance="10"
     guidetolerance="10"
     inkscape:pageopacity="0"
     inkscape:pageshadow="2"
     inkscape:window-width="1920"
     inkscape:window-height="1017"
     id="namedview6"
     showgrid="true"
     inkscape:zoom="37.565048"
     inkscape:cx="2.5381963"
     inkscape:cy="9.0869245"
     inkscape:window-x="-8"
     inkscape:window-y="-8"
     inkscape:window-maximized="1"
     inkscape:current-layer="svg4"
     inkscape:document-rotation="0">
    <inkscape:grid
       type="xygrid"
       id="grid26" />
  </sodipodi:namedview>
  <path
     d="m8 2a6 6 0 0 0 -6 6 6 6 0 0 0 6 6 6 6 0 0 0 6-6 6 6 0 0 0 -6-6zm0 2a4 4 0 0 1 4 4 4 4 0 0 1 -4 4 4 4 0 0 1 -4-4 4 4 0 0 1 4-4z"
     fill="#8eef97"
     id="path2"
     style="stroke:none;stroke-opacity:1;fill:#e0e0e0;fill-opacity:1" />
  <path
     style="fill:#ccffd0;fill-opacity:1;stroke:#8eef97;stroke-width:0.795962px;stroke-linecap:butt;stroke-linejoin:miter;stroke-opacity:1"
     d="M 9.2743178,9.136742 4.3245702,4.1869945 5.7387837,2.7727809 0.4279959,2.4267145 0.7890362,7.7225284 2.2032498,6.3083148 7.1529973,11.258063 Z"
     id="path24"
     sodipodi:nodetypes="cccccccc" />
  <path
     style="fill:#b2f4b8;fill-opacity:1;stroke:#8da5f3;stroke-width:0.795962px;stroke-linecap:butt;stroke-linejoin:miter;stroke-opacity:1"
     d="M 9.2743178,9.136742 4.3245702,4.1869945 5.7387837,2.7727809 0.4279959,2.4267145 0.7890362,7.7225284 2.2032498,6.3083148 7.1529973,11.258063 Z"
     id="path877"
     sodipodi:nodetypes="cccccccc" />
  <path
     style="fill:#b2f6b7;fill-opacity:1;stroke:#fc7f7f;stroke-width:0.795962px;stroke-linecap:butt;stroke-linejoin:miter;stroke-opacity:1"
     d="m 6.7628302,5.8841511 4.9497488,4.9497469 -1.414214,1.414214 5.310788,0.346066 -0.36104,-5.2958139 -1.414214,1.4142138 -4.9497476,-4.9497478 z"
     id="path877-0"
     sodipodi:nodetypes="cccccccc" />
</svg>
